<svg xmlns="http://www.w3.org/2000/svg" viewBox="0 0 512 512" width="512" height="512">
  <defs>
    <!-- Orange-to-magenta vertical gradient matching the laan.me brand palette -->
    <linearGradient id="hexGradient" x1="0" y1="0" x2="0" y2="1">
      <stop offset="0%"   stop-color="#FF9500"/>
      <stop offset="18%"  stop-color="#F77A2E"/>
      <stop offset="40%"  stop-color="#E0425A"/>
      <stop offset="65%"  stop-color="#B01E63"/>
      <stop offset="100%" stop-color="#7E0D4F"/>
    </linearGradient>

    <!-- Faceted diamond-triangle pattern: alternating light/dark triangles at low
         opacity suggest the mosaic texture of the brand logo without the cost of
         hundreds of hand-placed polygons. Diamond tile is nearly equilateral. -->
    <pattern id="facets" x="0" y="0" width="48" height="41.57" patternUnits="userSpaceOnUse">
      <polygon points="0,0 24,20.78 48,0"        fill="#ffffff" fill-opacity="0.07"/>
      <polygon points="0,41.57 24,20.78 48,41.57" fill="#000000" fill-opacity="0.09"/>
      <polygon points="0,0 0,41.57 24,20.78"     fill="#ffffff" fill-opacity="0.03"/>
      <polygon points="48,0 48,41.57 24,20.78"   fill="#000000" fill-opacity="0.05"/>
    </pattern>

    <!-- Rounded-corner pointy-top hexagon. Vertices at radius 220 from (256,256);
         corner radius 16; edge tangent-point offset = 16 * tan(30°) ≈ 9.238. -->
    <clipPath id="hexClip">
      <path d="M 264,40.619 L 438.526,141.381 A 16,16 0 0 1 446.526,155.238 L 446.526,356.762 A 16,16 0 0 1 438.526,370.619 L 264,471.381 A 16,16 0 0 1 248,471.381 L 73.474,370.619 A 16,16 0 0 1 65.474,356.762 L 65.474,155.238 A 16,16 0 0 1 73.474,141.381 L 248,40.619 A 16,16 0 0 1 264,40.619 Z"/>
    </clipPath>

    <!-- Soft drop shadow to lift the letter off the mosaic -->
    <filter id="letterShadow" x="-20%" y="-20%" width="140%" height="140%">
      <feGaussianBlur in="SourceAlpha" stdDeviation="3"/>
      <feOffset dx="2" dy="5"/>
      <feComponentTransfer><feFuncA type="linear" slope="0.35"/></feComponentTransfer>
      <feMerge>
        <feMergeNode/>
        <feMergeNode in="SourceGraphic"/>
      </feMerge>
    </filter>
  </defs>

  <!-- Hexagon interior: gradient + faceted overlay, clipped to hexagon shape -->
  <g clip-path="url(#hexClip)">
    <rect width="512" height="512" fill="url(#hexGradient)"/>
    <rect width="512" height="512" fill="url(#facets)"/>
  </g>

  <!-- White hexagon outline -->
  <path d="M 264,40.619 L 438.526,141.381 A 16,16 0 0 1 446.526,155.238 L 446.526,356.762 A 16,16 0 0 1 438.526,370.619 L 264,471.381 A 16,16 0 0 1 248,471.381 L 73.474,370.619 A 16,16 0 0 1 65.474,356.762 L 65.474,155.238 A 16,16 0 0 1 73.474,141.381 L 248,40.619 A 16,16 0 0 1 264,40.619 Z"
        fill="none" stroke="#ffffff" stroke-width="10" stroke-linejoin="round"/>

  <!-- Letter "N": bold slab block, 220w × 300h, stroke 68, centered at (256, 256).
       Built from three shapes: left vertical bar, right vertical bar, diagonal
       parallelogram that connects the inside corners of the two bars. -->
  <g fill="#ffffff" filter="url(#letterShadow)">
    <rect x="146" y="106" width="68" height="300"/>
    <rect x="298" y="106" width="68" height="300"/>
    <polygon points="146,106 214,106 366,406 298,406"/>
  </g>
</svg>
