<svg xmlns="http://www.w3.org/2000/svg" viewBox="0 0 512 512" width="512" height="512">
  <defs>
    <!-- Same two-color purple gradient as icon-n-purple.svg -->
    <linearGradient id="hexGradient" x1="0" y1="0" x2="0" y2="1">
      <stop offset="0%"   stop-color="#322D58"/>
      <stop offset="55%"  stop-color="#322D58"/>
      <stop offset="100%" stop-color="#322D58"/>
    </linearGradient>

    <!-- Hexagon-aligned rhombic facet pattern. Each rhombus has edges at 30°
         and 150° (matching the hexagon's slanted sides), forming a 60°/120°
         rhombus with horizontal long axis (aspect ratio √3 : 1 ≈ 1.732 : 1).

         Two-color tiling: the center rhombus of each tile is a single light
         diamond. The 4 corner triangles are all the same dark shade — when
         tiles tile, the 4 corners of 4 adjacent tiles combine to form a dark
         rhombus of identical shape, offset by half a tile diagonal. Adjacent
         rhombi alternate light/dark, making each diamond's silhouette crisply
         visible without internal grid lines. -->
    <pattern id="facets" x="13.52" y="-1.525" width="69.28" height="40" patternUnits="userSpaceOnUse">
      <!-- Light rhombus at tile center: one solid-color diamond -->
      <polygon points="0,20 34.64,0 69.28,20 34.64,40" fill="#ffffff" fill-opacity="0.06"/>
      <!-- 4 corner triangles with identical dark shade — combine across tile
           boundaries into full dark rhombi at each tile corner -->
      <polygon points="0,0 34.64,0 0,20"              fill="#000000" fill-opacity="0.11"/>
      <polygon points="34.64,0 69.28,0 69.28,20"      fill="#000000" fill-opacity="0.11"/>
      <polygon points="69.28,20 69.28,40 34.64,40"    fill="#000000" fill-opacity="0.11"/>
      <polygon points="0,20 34.64,40 0,40"            fill="#000000" fill-opacity="0.11"/>
    </pattern>

    <!-- Rounded-corner pointy-top hexagon (same geometry) -->
    <clipPath id="hexClip">
      <path d="M 264,40.619 L 438.526,141.381 A 16,16 0 0 1 446.526,155.238 L 446.526,356.762 A 16,16 0 0 1 438.526,370.619 L 264,471.381 A 16,16 0 0 1 248,471.381 L 73.474,370.619 A 16,16 0 0 1 65.474,356.762 L 65.474,155.238 A 16,16 0 0 1 73.474,141.381 L 248,40.619 A 16,16 0 0 1 264,40.619 Z"/>
    </clipPath>

    <!-- Soft drop shadow -->
    <filter id="letterShadow" x="-20%" y="-20%" width="140%" height="140%">
      <feGaussianBlur in="SourceAlpha" stdDeviation="3"/>
      <feOffset dx="2" dy="5"/>
      <feComponentTransfer><feFuncA type="linear" slope="0.35"/></feComponentTransfer>
      <feMerge>
        <feMergeNode/>
        <feMergeNode in="SourceGraphic"/>
      </feMerge>
    </filter>
  </defs>

  <!-- Hexagon interior: gradient + diamond-grid facet overlay, clipped to hexagon shape -->
  <g clip-path="url(#hexClip)">
    <rect width="512" height="512" fill="url(#hexGradient)"/>
  </g>

  <!-- White hexagon outline -->
  <path d="M 264,40.619 L 438.526,141.381 A 16,16 0 0 1 446.526,155.238 L 446.526,356.762 A 16,16 0 0 1 438.526,370.619 L 264,471.381 A 16,16 0 0 1 248,471.381 L 73.474,370.619 A 16,16 0 0 1 65.474,356.762 L 65.474,155.238 A 16,16 0 0 1 73.474,141.381 L 248,40.619 A 16,16 0 0 1 264,40.619 Z"
        fill="none" stroke="#ffffff" stroke-width="10" stroke-linejoin="round"/>

  <!-- Letter "N": identical geometry to other N variants -->
  <g fill="#ffffff" filter="url(#letterShadow)">
    <rect x="146" y="106" width="68" height="300"/>
    <rect x="298" y="106" width="68" height="300"/>
    <polygon points="146,106 214,106 366,406 298,406"/>
  </g>
</svg>
